<?xml version="1.0" encoding="UTF-8"?>
<svg id="Layer_1" xmlns="http://www.w3.org/2000/svg" version="1.1" xmlns:xlink="http://www.w3.org/1999/xlink" viewBox="0 0 67.59 67.5">
  <!-- Generator: Adobe Illustrator 29.4.0, SVG Export Plug-In . SVG Version: 2.1.0 Build 152)  -->
  <defs>
    <style>
      .st0 {
        stroke: #fff;
      }

      .st0, .st1 {
        fill: #fff;
      }

      .st0, .st2 {
        stroke-miterlimit: 10;
      }

      .st3 {
        fill: none;
      }

      .st2 {
        fill: #393839;
        stroke: #393839;
      }

      .st4 {
        clip-path: url(#clippath);
      }
    </style>
    <clipPath id="clippath">
      <circle class="st3" cx="33.82" cy="33.72" r="33.61"/>
    </clipPath>
  </defs>
  <g class="st4">
    <circle class="st2" cx="33.82" cy="33.72" r="33.07"/>
    <path class="st0" d="M54.87,34.39c0,9.94-22.64,25.32-34.96,11.66-5.28-7.31-8.3-34.68,15.08-30.05,7.39,1.46,19.88,3.26,19.88,18.38Z"/>
    <path class="st2" d="M26.29,25.87c1.3-1.53,1.2-3.76-.23-4.97s-3.64-.95-4.95.58-1.66,4.88-.23,6.09,4.11-.17,5.41-1.7Z"/>
    <path class="st2" d="M46.5,36.12c1.85-2.19,1.58-5.46-.6-7.31-2.19-1.85-5.46-1.58-7.31.6-1.85,2.19-2.7,6.41-.52,8.26s6.58.63,8.43-1.55Z"/>
    <ellipse class="st2" cx="23.93" cy="44.43" rx="2.19" ry="1.96" transform="translate(-25.43 33.95) rotate(-49.71)"/>
    <circle class="st3" cx="33.82" cy="33.72" r="33.07"/>
    <path class="st1" d="M35.68,55.75c.13.02.26.06.38.08.44.08-.2-.14.03-.01.11.06.23.12.34.18.05.03.41.25.15.08-.28-.19.18.16.2.18.1.09.19.18.28.28.19.19.36.4.53.61-.22-.27-.1-.13.03.06.08.11.15.22.23.33.17.25.33.5.49.75.38.61.75,1.23,1.09,1.85.33.59.64,1.19.94,1.8.14.29.28.57.41.86.07.14.13.29.2.44,0-.02.26.6.16.36-.09-.22.09.21.1.25.06.15.12.3.18.44.13.33.26.67.38,1.01.24.67.47,1.36.68,2.04.38,1.25,1.77,2.17,3.08,1.75s2.15-1.74,1.75-3.08c-.93-3.06-2.19-6.04-3.78-8.82-1.46-2.57-3.35-5.71-6.52-6.29-1.28-.23-2.76.35-3.08,1.75-.28,1.22.37,2.83,1.75,3.08h0Z"/>
    <path class="st1" d="M49.5,68.29c.85-6.29-.35-14.18-6.75-17.24-1.1-.53-2.19-.94-3.41-.84l-2.44.2c-.35.03-.85.03-1.16.13-1.2.39-1.77,1.52-2.29,2.58-.74,1.5-1.32,3.09-1.63,4.73-.78,4.13-.18,8.27,1.66,12.04.83,1.71,3.44,1.55,4.32,0l1.48-2.62-2.16,1.24c1.26-.08,2.52-.16,3.78-.24,1.42-.09,2.95-.04,4.07-1.07,2.3-2.13.42-5.24-.76-7.42-.6-1.11-1.21-2.49-2.32-3.17-1.92-1.18-4.19.25-4.33,2.37-.08,1.14.13,2.35.21,3.49.09,1.26.18,2.52.27,3.78,1.42-.59,2.85-1.18,4.27-1.77-.11-.12-.2-.28-.06-.06-.11-.17-.21-.34-.3-.52-.17-.35.09.3-.02-.07-.04-.16-.09-.31-.13-.47-.02-.09-.08-.62-.04-.18-.01-.16-.02-.33-.03-.49s0-.33,0-.49c0-.18.02-.34-.01-.07.22-1.78.97-2.87,1.64-4.47s-.81-3.76-1.44-5.19c-.44-.99-1.85-1.42-2.82-1.15-2.55.71-4.34,2.97-4.89,5.51s.04,5.23-.34,7.4c-.22,1.28.34,2.76,1.75,3.08,1.22.28,2.83-.37,3.08-1.75.39-2.24.09-4.43.24-6.68,0-.05.06-.61.02-.31.03-.23.08-.46.14-.68s.12-.45.2-.67c-.17.45.12-.21.15-.25.03-.05.38-.54.21-.33s.24-.23.28-.27c.2-.17.23-.2.11-.09-.13.11-.08.09.13-.06.51-.13-.31.07.26-.09l-2.82-1.15,1.32,2.96v-2.52c-1.02,2.09-1.97,4.18-2.17,6.52s.53,4.4,2,6.07c1.39,1.58,4.42.36,4.27-1.77-.09-1.26-.18-2.52-.27-3.78l-.14-1.89-.06-.79-.03-.47c0-.29-.01-.23-.02.17l-.64,1.1.11-.11-1.1.64.2-.04-1.93-.25c-.3-.13-.56-.76-.15-.08.1.17.2.34.3.51.22.38.44.77.64,1.16.41.76.88,1.56,1.17,2.37-.08-.19-.1-.2-.04-.04.04.15.04.15.01.01-.15-.05,1.12-1.71,1.16-1.6.19-.01.15-.01-.1,0l-.32.02c-.21.01-.42.03-.63.04-1,.06-2,.13-3,.19-1.3.08-2.49.14-3.27,1.33-.16.24-.29.51-.43.76l-1.04,1.84h4.32c-1.01-2.07-1.46-4.41-1.32-6.82.06-1,.24-2.01.63-3.22.08-.26.17-.52.27-.78.06-.17.13-.34.2-.51-.07.18-.04.13.08-.15.29-.57.58-1.13.92-1.68l-2.16,1.24,2.94-.25c.16-.01.4,0,.56-.05.03-.01-.7-.23-.15.03.09.04.73.27.28.07,1.03.44,1.49.82,2.07,1.4.17.17.33.34.49.51.08.09.16.18.23.27-.15-.2-.13-.18.04.06.27.39.53.79.75,1.21.11.21.21.42.32.64-.2-.43.07.18.11.28.21.58.37,1.18.5,1.78.43,2.01.29,4.56-.02,6.88-.17,1.3,1.27,2.55,2.5,2.5,1.5-.07,2.31-1.11,2.5-2.5h0Z"/>
  </g>
</svg>