<?xml version="1.0" encoding="UTF-8"?>
<svg id="Layer_1" xmlns="http://www.w3.org/2000/svg" version="1.1" xmlns:xlink="http://www.w3.org/1999/xlink" viewBox="0 0 100 100">
  <!-- Generator: Adobe Illustrator 29.4.0, SVG Export Plug-In . SVG Version: 2.1.0 Build 152)  -->
  <defs>
    <style>
      .st0, .st1 {
        fill: #fff;
      }

      .st0, .st2 {
        stroke: #fff;
      }

      .st0, .st2, .st3 {
        stroke-miterlimit: 10;
      }

      .st2, .st4 {
        fill: none;
      }

      .st3 {
        fill: #231f20;
        stroke: #231f20;
      }

      .st5 {
        clip-path: url(#clippath);
      }
    </style>
    <clipPath id="clippath">
      <circle class="st4" cx="50.06" cy="50.17" r="49.83"/>
    </clipPath>
  </defs>
  <g class="st5">
    <g>
      <circle class="st3" cx="50.06" cy="50.17" r="49.83"/>
      <path class="st0" d="M78.51,51.18c0,14.98-34.12,38.16-52.69,17.58-7.95-11.01-12.51-52.26,22.73-45.28,11.13,2.2,29.96,4.92,29.96,27.7Z"/>
      <path class="st3" d="M35.44,38.33c1.96-2.31,1.8-5.67-.35-7.5s-5.49-1.43-7.45.88-2.51,7.36-.35,9.18,6.2-.26,8.16-2.57Z"/>
      <path class="st3" d="M65.9,53.78c2.79-3.29,2.39-8.23-.91-11.02-3.29-2.79-8.23-2.39-11.02.91-2.79,3.29-4.07,9.66-.78,12.45,3.29,2.79,9.92.96,12.71-2.34Z"/>
      <ellipse class="st3" cx="31.89" cy="66.31" rx="3.3" ry="2.96" transform="translate(-39.31 47.76) rotate(-49.71)"/>
      <path class="st1" d="M50.29,81.43c2.16,1.7,2.84,4.28,3.38,6.86.68,3.24,1.44,6.53,1.67,9.84.1,1.35,1.08,2.5,2.5,2.5,1.28,0,2.59-1.15,2.5-2.5-.31-4.41-.21-9.2-1.88-13.36-.83-2.06-1.93-4.03-3.18-5.86-.66-.97-1.45-1.77-2.62-2.11-.96-.28-2.02-.36-3.01-.5-1.21-.17-2.37-.34-3.59-.2s-2.23.59-3.28,1.13c-.87.45-1.79.74-2.66,1.18-.98.49-1.7,1.25-2.33,2.13-1.19,1.68-2,3.64-2.87,5.49-.97,2.05-2,4.08-2.78,6.21-.86,2.34,2.56,4.25,4.18,2.43l-1.66.33-.9-.9c.11-.11.12-.25.03-.43l-.02.15c-.24.09-.59,1.32-.67,1.52-.35.95-.49,1.96-.51,2.97-.06,2.64,3.32,3.19,4.66,1.26,3.4-4.89,6.79-9.78,10.19-14.68l-4.57-1.93c-.85,3.65-2.31,7.15-3.28,10.77-.25.92-.48,1.85-.7,2.78s-.63,2.09-.35,3.1c.55,1.99,3.31,2.51,5.09,2.58,1.92.07,3.92-.73,4.97-2.39.99-1.56,1.19-3.74,1.58-5.51.85-3.84,1.72-7.78.78-11.69l-4.82,1.33c1.07,2.65,2.16,5.33,2.65,8.16s-.48,5.49.69,8.12c.41.92,1.88,1.51,2.82,1.15.19-.08.39-.15.58-.23,1.04-.4,1.84-1.23,1.84-2.41,0-1.02-.77-2.23-1.84-2.41-2.79-.47-5.39.45-8.17.46s-5.37-.02-7.94-.67l-1.33,4.82c3.37.53,6.75,1.07,10.16,1.26,3.03.17,6.74.38,9.46-1.18s.27-5.93-2.52-4.32c-.9.52-2.07.49-3.08.53-1.44.06-2.87.03-4.31-.06-2.81-.18-5.59-.61-8.37-1.05-1.33-.21-2.69.34-3.08,1.75-.35,1.28.43,2.74,1.75,3.08,2.74.69,5.57.79,8.39.84,1.41.03,2.78-.05,4.18-.27,1.14-.18,2.38-.56,3.55-.36v-4.82c-.19.08-.39.15-.58.23l2.82,1.15c-.13-.29.03-.98.05-1.28.05-.61.12-1.21.12-1.82.02-1.42-.17-2.85-.44-4.24-.53-2.68-1.55-5.22-2.57-7.74-.51-1.25-1.67-2.13-3.08-1.75s-2.06,1.76-1.75,3.08c.71,2.98-.14,6.11-.78,9.03-.16.71-.32,1.42-.48,2.14-.1.43-.19.86-.3,1.28-.05.19-.39.89-.12.67-.63.51-2.07-.09-2.7-.35l1.1.64-.14-.15.73,1.77c.03-1.08.57-2.41.85-3.45.33-1.28.69-2.55,1.08-3.81.75-2.47,1.73-4.87,2.31-7.39.66-2.83-2.97-4.24-4.57-1.93-3.4,4.89-6.79,9.78-10.19,14.68l4.66,1.26c.02-1.11.55-1.9.9-2.93.33-.96.35-1.98.02-2.95-.8-2.35-4.01-3.23-5.73-1.3l4.18,2.43c.58-1.59,1.38-3.11,2.1-4.64.76-1.61,1.49-3.24,2.38-4.79.24-.42.48-.97.89-1.26.62-.45,1.64-.65,2.33-1,.56-.28,1.1-.65,1.72-.8.77-.18,1.62-.02,2.39.09.82.11,1.77.17,2.56.43-.39-.13-.38-.38-.21.07.13.33.46.73.65,1.04.89,1.44,1.77,2.91,2.28,4.53,1.09,3.46,1.03,7.27,1.28,10.86h5c-.28-3.88-1.11-7.77-1.94-11.57-.7-3.21-1.91-6.57-4.58-8.66-1.06-.83-2.5-1.03-3.54,0-.87.87-1.07,2.7,0,3.54h0Z"/>
      <path class="st2" d="M31.54,95.32c2.26-1.22,4.25-2.92,5.81-4.96"/>
      <path class="st1" d="M34.6,92.06h-.18c-.34-.01-.67.06-.96.22-.31.1-.58.27-.8.52-.24.23-.42.49-.52.8-.16.3-.23.62-.22.96l.09.66c.12.42.33.79.64,1.1l.51.39c.39.23.81.34,1.26.34h.18c.34.01.67-.06.96-.22.31-.1.58-.27.8-.52.24-.23.42-.49.52-.8.16-.3.23-.62.22-.96l-.09-.66c-.12-.42-.33-.79-.64-1.1l-.51-.39c-.39-.23-.81-.34-1.26-.34h0Z"/>
      <path class="st1" d="M35.81,92.8c-.71-.68-1.68-.97-2.64-.7-.87.24-1.71,1-1.88,1.92-.19,1.06.11,2.28,1.15,2.82s2.2.4,3.03-.39c.93-.89,1.5-2.14,1.14-3.44-.46-1.66-2.02-2.4-3.63-2.11l2.82,3.67c.83-1.92,1.77-3.8,2.8-5.63s-.69-4.32-2.82-3.67c-3.27.99-6.01,3.87-6.6,7.28-.18,1.06-.24,2.06-.05,3.12.23,1.28,1,2.21,2.05,2.93,1.54,1.05,3.23,1.93,4.83,2.88,1.13.67,2.79.29,3.42-.9s.3-2.71-.9-3.42c-1.35-.8-2.71-1.61-4.06-2.41-.1-.06-.79-.55-.84-.52l.23.17c-.15-.16-.16-.17-.03-.03.08.16.22.53.16.16.05.3.03.34.02,0,0-.14,0-.28,0-.42s.05-.36.03-.5c.03.22-.08.5,0,.09.05-.27.12-.54.21-.8.02-.05.08-.37.14-.39-.14.31-.17.39-.09.22.02-.05.05-.1.07-.15.14-.27.29-.54.46-.8.05-.07.34-.46.1-.15s.1-.11.12-.14c.18-.21.38-.41.58-.59.03-.03.45-.36.13-.12s.08-.05.15-.1c.25-.17.52-.32.79-.46.05-.02.1-.05.15-.07.17-.08.1-.05-.21.09,0-.04.44-.15.47-.16l-2.82-3.67c-1.03,1.83-1.97,3.7-2.8,5.63-.41.95-.48,1.9.2,2.78s1.61,1.08,2.63.9l.13-.02h-1.33c-1.44-1.17-1.75-2.18-.94-3.02-.07.08-.15.16-.23.24l4.18,2.43.02-.09-.64,1.1.07-.07-1.1.64-.48.07-1.77-.73.07.06c.94.91,2.61,1.01,3.54,0s1.01-2.57,0-3.54h0Z"/>
      <ellipse class="st2" cx="50.43" cy="52.27" rx="47.91" ry="49.17"/>
    </g>
  </g>
  <path class="st1" d="M45.19,64.99c3.22,0,3.22-5,0-5s-3.22,5,0,5h0Z"/>
  <path class="st1" d="M42.63,62.44c3.22,0,3.22-5,0-5s-3.22,5,0,5h0Z"/>
  <path class="st1" d="M42.63,62.44c3.22,0,3.22-5,0-5s-3.22,5,0,5h0Z"/>
  <path class="st1" d="M43.83,82.8l.08.1-.34-1.26v.12c.11-.42.22-.84.34-1.26.2-.33.47-.55.82-.66l-.6.25c-.19.08-.37.17-.55.27-.48.27-.92.61-1.34.97-.68.58-1.25,1.3-1.76,2.04s-.89,1.45-1.26,2.22c-.58,1.19-1.23,2.4-.66,3.74.59,1.4,1.92,1.74,3.24,2.14,1.05.32,2.1.63,3.14.96.53.17.06.06.07-.01.61.38.4-.07-.63-1.32v-.24c-.14.15-.2.53-.28.73-.1.26-.2.53-.31.79-.41,1.06-.81,2.11-1.22,3.17-.35.92.18,2.07.9,2.63.82.63,1.86.66,2.78.2,2.48-1.27,4.86-2.69,6.5-5,.84-1.17,1.3-2.59,1.57-3.98.13-.65.22-1.3.35-1.95.07-.36.15-.72.26-1.08.05-.16.1-.31.15-.47.14-.41-.25.5.08-.19.53-1.12.42-2.83-.9-3.42-.35-.16-.7-.33-1-.57.21.16.1.07-.02-.05-.16-.17-.31-.33-.46-.51l-3.54,3.54c.11.1.21.21.3.32-.15-.19-.17-.21-.08-.07.04.1.34.8.17.29.14.42.25.85.31,1.29-.08-.58,0,.16,0,.28.02.33.03.66.03.99.01.61.01,1.22.07,1.83.24,2.53,1.19,4.81,3.01,6.61.93.92,2.62,1,3.54,0s.99-2.55,0-3.54c-.19-.19-.38-.38-.55-.59-.11-.13-.1-.12.04.05-.09-.13-.18-.25-.26-.39-.12-.2-.23-.4-.34-.61-.33-.61.11.4-.11-.25-.07-.22-.14-.44-.2-.66-.04-.15-.07-.3-.1-.45.01.15,0,.14,0-.03-.08-.61-.07-1.22-.08-1.83-.05-2.46-.38-4.95-2.2-6.77-.93-.92-2.62-1-3.54,0-.99,1.08-.88,2.45,0,3.54.66.81,1.54,1.49,2.5,1.92l-.9-3.42c-.63,1.35-.95,2.69-1.2,4.15-.11.65-.23,1.3-.41,1.93-.03.09-.35.94-.17.55-.11.23-.23.46-.37.68-.06.1-.53.69-.18.29-.19.22-.38.44-.59.64s-.43.4-.66.58c.4-.34-.31.22-.39.27-.99.68-2.06,1.24-3.13,1.78l3.67,2.82c.44-1.14.88-2.29,1.32-3.43.58-1.51,1.04-2.95-.06-4.38-.85-1.1-2.22-1.4-3.48-1.79-.59-.18-1.18-.36-1.77-.54-.27-.08-.55-.17-.82-.25-.18-.06-.36-.11-.55-.17.32.17.37.18.15.03l.9.9-.09-.13.34,1.26c.02.14-.29.77-.07.32.09-.19.18-.38.27-.58.19-.39.38-.77.59-1.14.19-.34.39-.67.61-.99.06-.09.12-.17.18-.26-.16.2-.18.23-.07.09.14-.15.27-.31.41-.46.12-.12.25-.23.37-.35.38-.39-.3.16.13-.1.17-.11.34-.21.52-.31.22-.1.25-.12.08-.04-.3.14-.14.07.49-.2,1.36-.73,2.38-2.64,1.3-4.05-.79-1.04-2.19-1.69-3.42-.9-1.03.66-1.74,2.31-.9,3.42h0Z"/>
</svg>